<mxfile host="app.diagrams.net" modified="2022-03-11T13:49:15.481Z" agent="5.0 (Windows)" etag="JJekbfRnFkKeckrJrX1a" version="17.1.0" type="github">
  <diagram id="Ai14dX3HpENZLGsp-uLh" name="Page-1">
    <mxGraphModel dx="1138" dy="624" grid="1" gridSize="5" guides="1" tooltips="1" connect="1" arrows="1" fold="1" page="1" pageScale="1" pageWidth="583" pageHeight="827" math="0" shadow="0">
      <root>
        <mxCell id="0" />
        <mxCell id="1" parent="0" />
        <mxCell id="7cvvgOsZ7nwpfraIHdtP-56" style="edgeStyle=orthogonalEdgeStyle;rounded=0;orthogonalLoop=1;jettySize=auto;html=1;exitX=1;exitY=0.5;exitDx=0;exitDy=0;entryX=1;entryY=0.5;entryDx=0;entryDy=0;" edge="1" parent="1" source="7cvvgOsZ7nwpfraIHdtP-40" target="7cvvgOsZ7nwpfraIHdtP-59">
          <mxGeometry relative="1" as="geometry">
            <mxPoint x="170" y="280" as="targetPoint" />
            <Array as="points">
              <mxPoint x="180" y="80" />
              <mxPoint x="180" y="320" />
            </Array>
          </mxGeometry>
        </mxCell>
        <mxCell id="7cvvgOsZ7nwpfraIHdtP-40" value="Albedo" style="rounded=0;whiteSpace=wrap;html=1;fillColor=#fff2cc;strokeColor=#d6b656;" vertex="1" parent="1">
          <mxGeometry x="40" y="70" width="100" height="20" as="geometry" />
        </mxCell>
        <mxCell id="7cvvgOsZ7nwpfraIHdtP-73" style="edgeStyle=orthogonalEdgeStyle;rounded=0;orthogonalLoop=1;jettySize=auto;html=1;exitX=1;exitY=0.5;exitDx=0;exitDy=0;entryX=0.25;entryY=0;entryDx=0;entryDy=0;" edge="1" parent="1" source="7cvvgOsZ7nwpfraIHdtP-41" target="7cvvgOsZ7nwpfraIHdtP-70">
          <mxGeometry relative="1" as="geometry">
            <mxPoint x="310" y="240" as="targetPoint" />
            <Array as="points">
              <mxPoint x="220" y="140" />
              <mxPoint x="220" y="180" />
              <mxPoint x="319" y="180" />
              <mxPoint x="319" y="210" />
              <mxPoint x="318" y="210" />
            </Array>
          </mxGeometry>
        </mxCell>
        <mxCell id="7cvvgOsZ7nwpfraIHdtP-41" value="Normal map" style="rounded=0;whiteSpace=wrap;html=1;fillColor=#fff2cc;strokeColor=#d6b656;" vertex="1" parent="1">
          <mxGeometry x="40" y="130" width="100" height="20" as="geometry" />
        </mxCell>
        <mxCell id="7cvvgOsZ7nwpfraIHdtP-80" style="edgeStyle=orthogonalEdgeStyle;rounded=0;orthogonalLoop=1;jettySize=auto;html=1;exitX=1;exitY=0.5;exitDx=0;exitDy=0;entryX=0.5;entryY=0;entryDx=0;entryDy=0;" edge="1" parent="1" source="7cvvgOsZ7nwpfraIHdtP-42" target="7cvvgOsZ7nwpfraIHdtP-79">
          <mxGeometry relative="1" as="geometry">
            <Array as="points">
              <mxPoint x="430" y="170" />
              <mxPoint x="430" y="280" />
              <mxPoint x="480" y="280" />
            </Array>
          </mxGeometry>
        </mxCell>
        <mxCell id="7cvvgOsZ7nwpfraIHdtP-42" value="Specular map" style="rounded=0;whiteSpace=wrap;html=1;fillColor=#fff2cc;strokeColor=#d6b656;" vertex="1" parent="1">
          <mxGeometry x="40" y="160" width="100" height="20" as="geometry" />
        </mxCell>
        <mxCell id="7cvvgOsZ7nwpfraIHdtP-78" style="edgeStyle=orthogonalEdgeStyle;rounded=0;orthogonalLoop=1;jettySize=auto;html=1;exitX=1;exitY=0.5;exitDx=0;exitDy=0;entryX=0.5;entryY=0;entryDx=0;entryDy=0;" edge="1" parent="1" source="7cvvgOsZ7nwpfraIHdtP-43" target="7cvvgOsZ7nwpfraIHdtP-77">
          <mxGeometry relative="1" as="geometry" />
        </mxCell>
        <mxCell id="7cvvgOsZ7nwpfraIHdtP-43" value="Emission map" style="rounded=0;whiteSpace=wrap;html=1;fillColor=#fff2cc;strokeColor=#d6b656;" vertex="1" parent="1">
          <mxGeometry x="40" y="190" width="100" height="20" as="geometry" />
        </mxCell>
        <mxCell id="7cvvgOsZ7nwpfraIHdtP-60" style="edgeStyle=orthogonalEdgeStyle;rounded=0;orthogonalLoop=1;jettySize=auto;html=1;exitX=0.5;exitY=1;exitDx=0;exitDy=0;entryX=0;entryY=0.5;entryDx=0;entryDy=0;" edge="1" parent="1" source="7cvvgOsZ7nwpfraIHdtP-44" target="7cvvgOsZ7nwpfraIHdtP-59">
          <mxGeometry relative="1" as="geometry" />
        </mxCell>
        <mxCell id="7cvvgOsZ7nwpfraIHdtP-44" value="Shadow/AO map" style="rounded=0;whiteSpace=wrap;html=1;fillColor=#ffe6cc;strokeColor=#d79b00;" vertex="1" parent="1">
          <mxGeometry x="40" y="220" width="100" height="20" as="geometry" />
        </mxCell>
        <mxCell id="7cvvgOsZ7nwpfraIHdtP-53" style="edgeStyle=orthogonalEdgeStyle;rounded=0;orthogonalLoop=1;jettySize=auto;html=1;exitX=1;exitY=0.5;exitDx=0;exitDy=0;entryX=0.25;entryY=0;entryDx=0;entryDy=0;" edge="1" parent="1" source="7cvvgOsZ7nwpfraIHdtP-46" target="7cvvgOsZ7nwpfraIHdtP-47">
          <mxGeometry relative="1" as="geometry" />
        </mxCell>
        <mxCell id="7cvvgOsZ7nwpfraIHdtP-46" value="Matcap" style="rounded=0;whiteSpace=wrap;html=1;" vertex="1" parent="1">
          <mxGeometry x="40" y="100" width="100" height="20" as="geometry" />
        </mxCell>
        <mxCell id="7cvvgOsZ7nwpfraIHdtP-54" style="edgeStyle=orthogonalEdgeStyle;rounded=0;orthogonalLoop=1;jettySize=auto;html=1;exitX=0.25;exitY=1;exitDx=0;exitDy=0;entryX=1;entryY=0.5;entryDx=0;entryDy=0;" edge="1" parent="1" source="7cvvgOsZ7nwpfraIHdtP-47" target="7cvvgOsZ7nwpfraIHdtP-61">
          <mxGeometry relative="1" as="geometry">
            <mxPoint x="270.0967741935483" y="280" as="targetPoint" />
          </mxGeometry>
        </mxCell>
        <mxCell id="7cvvgOsZ7nwpfraIHdtP-47" value="Sphere map" style="rounded=0;whiteSpace=wrap;html=1;" vertex="1" parent="1">
          <mxGeometry x="265" y="130" width="90" height="30" as="geometry" />
        </mxCell>
        <mxCell id="7cvvgOsZ7nwpfraIHdtP-67" style="edgeStyle=orthogonalEdgeStyle;rounded=0;orthogonalLoop=1;jettySize=auto;html=1;exitX=0.5;exitY=1;exitDx=0;exitDy=0;entryX=1;entryY=0.5;entryDx=0;entryDy=0;" edge="1" parent="1" source="7cvvgOsZ7nwpfraIHdtP-48" target="7cvvgOsZ7nwpfraIHdtP-47">
          <mxGeometry relative="1" as="geometry" />
        </mxCell>
        <mxCell id="7cvvgOsZ7nwpfraIHdtP-48" value="Eye vector" style="rounded=0;whiteSpace=wrap;html=1;" vertex="1" parent="1">
          <mxGeometry x="340" y="70" width="80" height="20" as="geometry" />
        </mxCell>
        <mxCell id="7cvvgOsZ7nwpfraIHdtP-69" style="edgeStyle=orthogonalEdgeStyle;rounded=0;orthogonalLoop=1;jettySize=auto;html=1;exitX=0;exitY=0.5;exitDx=0;exitDy=0;entryX=1;entryY=0.5;entryDx=0;entryDy=0;" edge="1" parent="1" source="7cvvgOsZ7nwpfraIHdtP-49" target="7cvvgOsZ7nwpfraIHdtP-47">
          <mxGeometry relative="1" as="geometry">
            <Array as="points">
              <mxPoint x="450" y="110" />
              <mxPoint x="450" y="145" />
            </Array>
          </mxGeometry>
        </mxCell>
        <mxCell id="7cvvgOsZ7nwpfraIHdtP-71" style="edgeStyle=orthogonalEdgeStyle;rounded=0;orthogonalLoop=1;jettySize=auto;html=1;exitX=0;exitY=0.5;exitDx=0;exitDy=0;entryX=1;entryY=0.5;entryDx=0;entryDy=0;" edge="1" parent="1" source="7cvvgOsZ7nwpfraIHdtP-49" target="7cvvgOsZ7nwpfraIHdtP-70">
          <mxGeometry relative="1" as="geometry">
            <Array as="points">
              <mxPoint x="450" y="110" />
              <mxPoint x="450" y="320" />
            </Array>
          </mxGeometry>
        </mxCell>
        <mxCell id="7cvvgOsZ7nwpfraIHdtP-49" value="Normal" style="rounded=0;whiteSpace=wrap;html=1;" vertex="1" parent="1">
          <mxGeometry x="470" y="100" width="100" height="20" as="geometry" />
        </mxCell>
        <mxCell id="7cvvgOsZ7nwpfraIHdtP-103" style="edgeStyle=orthogonalEdgeStyle;rounded=0;orthogonalLoop=1;jettySize=auto;html=1;exitX=0.75;exitY=1;exitDx=0;exitDy=0;entryX=0.375;entryY=0;entryDx=0;entryDy=0;" edge="1" parent="1" source="7cvvgOsZ7nwpfraIHdtP-55" target="7cvvgOsZ7nwpfraIHdtP-98">
          <mxGeometry relative="1" as="geometry" />
        </mxCell>
        <mxCell id="7cvvgOsZ7nwpfraIHdtP-109" style="edgeStyle=orthogonalEdgeStyle;rounded=0;orthogonalLoop=1;jettySize=auto;html=1;exitX=0.25;exitY=1;exitDx=0;exitDy=0;" edge="1" parent="1" source="7cvvgOsZ7nwpfraIHdtP-55" target="7cvvgOsZ7nwpfraIHdtP-110">
          <mxGeometry relative="1" as="geometry">
            <mxPoint x="220" y="675" as="targetPoint" />
            <Array as="points">
              <mxPoint x="220" y="680" />
              <mxPoint x="355" y="680" />
            </Array>
          </mxGeometry>
        </mxCell>
        <mxCell id="7cvvgOsZ7nwpfraIHdtP-55" value="Albedo" style="rounded=0;whiteSpace=wrap;html=1;" vertex="1" parent="1">
          <mxGeometry x="205" y="430" width="60" height="30" as="geometry" />
        </mxCell>
        <mxCell id="7cvvgOsZ7nwpfraIHdtP-62" style="edgeStyle=orthogonalEdgeStyle;rounded=0;orthogonalLoop=1;jettySize=auto;html=1;exitX=0.5;exitY=1;exitDx=0;exitDy=0;" edge="1" parent="1" source="7cvvgOsZ7nwpfraIHdtP-59" target="7cvvgOsZ7nwpfraIHdtP-61">
          <mxGeometry relative="1" as="geometry" />
        </mxCell>
        <mxCell id="7cvvgOsZ7nwpfraIHdtP-59" value="Multiply" style="rhombus;whiteSpace=wrap;html=1;" vertex="1" parent="1">
          <mxGeometry x="110" y="290" width="60" height="60" as="geometry" />
        </mxCell>
        <mxCell id="7cvvgOsZ7nwpfraIHdtP-63" style="edgeStyle=orthogonalEdgeStyle;rounded=0;orthogonalLoop=1;jettySize=auto;html=1;exitX=0.5;exitY=1;exitDx=0;exitDy=0;entryX=0.5;entryY=0;entryDx=0;entryDy=0;" edge="1" parent="1" source="7cvvgOsZ7nwpfraIHdtP-61" target="7cvvgOsZ7nwpfraIHdtP-55">
          <mxGeometry relative="1" as="geometry" />
        </mxCell>
        <mxCell id="7cvvgOsZ7nwpfraIHdtP-61" value="Add" style="rhombus;whiteSpace=wrap;html=1;" vertex="1" parent="1">
          <mxGeometry x="205" y="340" width="60" height="60" as="geometry" />
        </mxCell>
        <mxCell id="7cvvgOsZ7nwpfraIHdtP-85" style="edgeStyle=orthogonalEdgeStyle;rounded=0;orthogonalLoop=1;jettySize=auto;html=1;exitX=0;exitY=0.5;exitDx=0;exitDy=0;entryX=1;entryY=0.5;entryDx=0;entryDy=0;" edge="1" parent="1" source="7cvvgOsZ7nwpfraIHdtP-66" target="7cvvgOsZ7nwpfraIHdtP-70">
          <mxGeometry relative="1" as="geometry">
            <Array as="points">
              <mxPoint x="460" y="140" />
              <mxPoint x="460" y="320" />
            </Array>
          </mxGeometry>
        </mxCell>
        <mxCell id="7cvvgOsZ7nwpfraIHdtP-66" value="Tangent" style="rounded=0;whiteSpace=wrap;html=1;" vertex="1" parent="1">
          <mxGeometry x="470" y="130" width="100" height="20" as="geometry" />
        </mxCell>
        <mxCell id="7cvvgOsZ7nwpfraIHdtP-76" style="edgeStyle=orthogonalEdgeStyle;rounded=0;orthogonalLoop=1;jettySize=auto;html=1;exitX=0.25;exitY=1;exitDx=0;exitDy=0;entryX=0.5;entryY=0;entryDx=0;entryDy=0;" edge="1" parent="1" source="7cvvgOsZ7nwpfraIHdtP-70" target="7cvvgOsZ7nwpfraIHdtP-74">
          <mxGeometry relative="1" as="geometry" />
        </mxCell>
        <mxCell id="7cvvgOsZ7nwpfraIHdtP-70" value="TBN Matrix" style="rounded=0;whiteSpace=wrap;html=1;" vertex="1" parent="1">
          <mxGeometry x="296" y="305" width="90" height="30" as="geometry" />
        </mxCell>
        <mxCell id="7cvvgOsZ7nwpfraIHdtP-104" style="edgeStyle=orthogonalEdgeStyle;rounded=0;orthogonalLoop=1;jettySize=auto;html=1;exitX=0.5;exitY=1;exitDx=0;exitDy=0;entryX=0.5;entryY=0;entryDx=0;entryDy=0;" edge="1" parent="1" source="7cvvgOsZ7nwpfraIHdtP-74" target="7cvvgOsZ7nwpfraIHdtP-98">
          <mxGeometry relative="1" as="geometry" />
        </mxCell>
        <mxCell id="7cvvgOsZ7nwpfraIHdtP-74" value="Normal" style="rounded=0;whiteSpace=wrap;html=1;" vertex="1" parent="1">
          <mxGeometry x="288" y="430" width="60" height="30" as="geometry" />
        </mxCell>
        <mxCell id="7cvvgOsZ7nwpfraIHdtP-107" style="edgeStyle=orthogonalEdgeStyle;rounded=0;orthogonalLoop=1;jettySize=auto;html=1;exitX=0.5;exitY=1;exitDx=0;exitDy=0;entryX=1;entryY=0.5;entryDx=0;entryDy=0;" edge="1" parent="1" source="7cvvgOsZ7nwpfraIHdtP-77" target="7cvvgOsZ7nwpfraIHdtP-106">
          <mxGeometry relative="1" as="geometry" />
        </mxCell>
        <mxCell id="7cvvgOsZ7nwpfraIHdtP-77" value="Emission" style="rounded=0;whiteSpace=wrap;html=1;" vertex="1" parent="1">
          <mxGeometry x="370" y="430" width="60" height="30" as="geometry" />
        </mxCell>
        <mxCell id="7cvvgOsZ7nwpfraIHdtP-105" style="edgeStyle=orthogonalEdgeStyle;rounded=0;orthogonalLoop=1;jettySize=auto;html=1;exitX=0.5;exitY=1;exitDx=0;exitDy=0;entryX=0.625;entryY=0;entryDx=0;entryDy=0;" edge="1" parent="1" source="7cvvgOsZ7nwpfraIHdtP-79" target="7cvvgOsZ7nwpfraIHdtP-98">
          <mxGeometry relative="1" as="geometry" />
        </mxCell>
        <mxCell id="7cvvgOsZ7nwpfraIHdtP-79" value="Specular" style="rounded=0;whiteSpace=wrap;html=1;" vertex="1" parent="1">
          <mxGeometry x="450" y="430" width="60" height="30" as="geometry" />
        </mxCell>
        <mxCell id="7cvvgOsZ7nwpfraIHdtP-81" value="UV Coordinate 1" style="rounded=0;whiteSpace=wrap;html=1;fillColor=#fff2cc;strokeColor=#d6b656;" vertex="1" parent="1">
          <mxGeometry x="470" y="160" width="100" height="20" as="geometry" />
        </mxCell>
        <mxCell id="7cvvgOsZ7nwpfraIHdtP-82" value="UV Coordinate 2" style="rounded=0;whiteSpace=wrap;html=1;fillColor=#ffe6cc;strokeColor=#d79b00;" vertex="1" parent="1">
          <mxGeometry x="470" y="190" width="100" height="20" as="geometry" />
        </mxCell>
        <mxCell id="7cvvgOsZ7nwpfraIHdtP-102" style="edgeStyle=orthogonalEdgeStyle;rounded=0;orthogonalLoop=1;jettySize=auto;html=1;exitX=0.5;exitY=1;exitDx=0;exitDy=0;entryX=0.375;entryY=0;entryDx=0;entryDy=0;" edge="1" parent="1" source="7cvvgOsZ7nwpfraIHdtP-83" target="7cvvgOsZ7nwpfraIHdtP-98">
          <mxGeometry relative="1" as="geometry">
            <mxPoint x="190" y="545" as="targetPoint" />
          </mxGeometry>
        </mxCell>
        <mxCell id="7cvvgOsZ7nwpfraIHdtP-83" value="Position" style="rounded=0;whiteSpace=wrap;html=1;" vertex="1" parent="1">
          <mxGeometry x="120" y="430" width="60" height="30" as="geometry" />
        </mxCell>
        <mxCell id="7cvvgOsZ7nwpfraIHdtP-86" style="edgeStyle=orthogonalEdgeStyle;rounded=0;orthogonalLoop=1;jettySize=auto;html=1;exitX=0;exitY=0.5;exitDx=0;exitDy=0;entryX=0.5;entryY=0;entryDx=0;entryDy=0;" edge="1" parent="1" source="7cvvgOsZ7nwpfraIHdtP-84" target="7cvvgOsZ7nwpfraIHdtP-83">
          <mxGeometry relative="1" as="geometry">
            <Array as="points">
              <mxPoint x="440" y="80" />
              <mxPoint x="440" y="415" />
              <mxPoint x="150" y="415" />
            </Array>
          </mxGeometry>
        </mxCell>
        <mxCell id="7cvvgOsZ7nwpfraIHdtP-84" value="Position" style="rounded=0;whiteSpace=wrap;html=1;" vertex="1" parent="1">
          <mxGeometry x="470" y="70" width="100" height="20" as="geometry" />
        </mxCell>
        <mxCell id="7cvvgOsZ7nwpfraIHdtP-88" value="Textures" style="rounded=1;whiteSpace=wrap;html=1;fillColor=#e1d5e7;strokeColor=#9673a6;" vertex="1" parent="1">
          <mxGeometry x="40" y="25" width="100" height="35" as="geometry" />
        </mxCell>
        <mxCell id="7cvvgOsZ7nwpfraIHdtP-89" value="Vertex data" style="rounded=1;whiteSpace=wrap;html=1;fillColor=#e1d5e7;strokeColor=#9673a6;" vertex="1" parent="1">
          <mxGeometry x="470" y="25" width="100" height="35" as="geometry" />
        </mxCell>
        <mxCell id="7cvvgOsZ7nwpfraIHdtP-92" style="edgeStyle=orthogonalEdgeStyle;rounded=0;orthogonalLoop=1;jettySize=auto;html=1;exitX=0;exitY=0.5;exitDx=0;exitDy=0;entryX=1;entryY=0.5;entryDx=0;entryDy=0;" edge="1" parent="1" source="7cvvgOsZ7nwpfraIHdtP-90" target="7cvvgOsZ7nwpfraIHdtP-83">
          <mxGeometry relative="1" as="geometry">
            <Array as="points">
              <mxPoint x="195" y="80" />
              <mxPoint x="195" y="445" />
            </Array>
          </mxGeometry>
        </mxCell>
        <mxCell id="7cvvgOsZ7nwpfraIHdtP-90" value="Shininess" style="rounded=0;whiteSpace=wrap;html=1;" vertex="1" parent="1">
          <mxGeometry x="250" y="70" width="80" height="20" as="geometry" />
        </mxCell>
        <mxCell id="7cvvgOsZ7nwpfraIHdtP-93" value="Shader parameters" style="rounded=1;whiteSpace=wrap;html=1;fillColor=#e1d5e7;strokeColor=#9673a6;" vertex="1" parent="1">
          <mxGeometry x="250" y="25" width="170" height="35" as="geometry" />
        </mxCell>
        <mxCell id="7cvvgOsZ7nwpfraIHdtP-95" value="G-Buffers" style="rounded=1;whiteSpace=wrap;html=1;fillColor=#e1d5e7;strokeColor=#9673a6;" vertex="1" parent="1">
          <mxGeometry x="35" y="430" width="75" height="30" as="geometry" />
        </mxCell>
        <mxCell id="7cvvgOsZ7nwpfraIHdtP-108" style="edgeStyle=orthogonalEdgeStyle;rounded=0;orthogonalLoop=1;jettySize=auto;html=1;exitX=0.5;exitY=1;exitDx=0;exitDy=0;entryX=-0.011;entryY=0.544;entryDx=0;entryDy=0;entryPerimeter=0;" edge="1" parent="1" source="7cvvgOsZ7nwpfraIHdtP-98" target="7cvvgOsZ7nwpfraIHdtP-106">
          <mxGeometry relative="1" as="geometry" />
        </mxCell>
        <mxCell id="7cvvgOsZ7nwpfraIHdtP-98" value="Phong lighting" style="shape=hexagon;perimeter=hexagonPerimeter2;whiteSpace=wrap;html=1;fixedSize=1;" vertex="1" parent="1">
          <mxGeometry x="258" y="545" width="120" height="40" as="geometry" />
        </mxCell>
        <mxCell id="7cvvgOsZ7nwpfraIHdtP-112" style="edgeStyle=orthogonalEdgeStyle;rounded=0;orthogonalLoop=1;jettySize=auto;html=1;exitX=0.5;exitY=1;exitDx=0;exitDy=0;entryX=0.5;entryY=0;entryDx=0;entryDy=0;fontColor=#0000FF;" edge="1" parent="1" source="7cvvgOsZ7nwpfraIHdtP-106" target="7cvvgOsZ7nwpfraIHdtP-111">
          <mxGeometry relative="1" as="geometry">
            <Array as="points">
              <mxPoint x="360" y="670" />
              <mxPoint x="318" y="670" />
            </Array>
          </mxGeometry>
        </mxCell>
        <mxCell id="7cvvgOsZ7nwpfraIHdtP-106" value="Add" style="rhombus;whiteSpace=wrap;html=1;" vertex="1" parent="1">
          <mxGeometry x="340" y="615" width="40" height="40" as="geometry" />
        </mxCell>
        <mxCell id="7cvvgOsZ7nwpfraIHdtP-110" value="A" style="rounded=0;whiteSpace=wrap;html=1;" vertex="1" parent="1">
          <mxGeometry x="343.25" y="695" width="22.5" height="30" as="geometry" />
        </mxCell>
        <mxCell id="7cvvgOsZ7nwpfraIHdtP-111" value="&lt;font color=&quot;#FF0000&quot;&gt;R&lt;/font&gt;&lt;font color=&quot;#00CC00&quot;&gt;G&lt;/font&gt;&lt;font color=&quot;#0000FF&quot;&gt;B&lt;/font&gt;" style="rounded=0;whiteSpace=wrap;html=1;" vertex="1" parent="1">
          <mxGeometry x="298.25" y="695" width="40" height="30" as="geometry" />
        </mxCell>
        <mxCell id="7cvvgOsZ7nwpfraIHdtP-113" value="Framebuffer" style="rounded=1;whiteSpace=wrap;html=1;fillColor=#e1d5e7;strokeColor=#9673a6;" vertex="1" parent="1">
          <mxGeometry x="217" y="695" width="75" height="30" as="geometry" />
        </mxCell>
      </root>
    </mxGraphModel>
  </diagram>
</mxfile>
